<?xml version="1.0" standalone="no"?><!DOCTYPE svg PUBLIC "-//W3C//DTD SVG 1.1//EN" "http://www.w3.org/Graphics/SVG/1.1/DTD/svg11.dtd"><svg t="1751681047269" class="icon" viewBox="0 0 1024 1024" version="1.1" xmlns="http://www.w3.org/2000/svg" p-id="11211" xmlns:xlink="http://www.w3.org/1999/xlink" width="200" height="200"><path d="M576.128 955.52L576 704l190.528-186.56A4.8 4.8 0 0 0 768 514.048l-0.384-1.92-1.024-1.536L512 256 257.28 510.592a4.864 4.864 0 0 0-1.408 3.456l0.384 1.856 1.088 1.536L448 704l-0.512 197.76v53.696l-14.592-2.368a447.744 447.744 0 0 1-368.64-425.408L64 512a448 448 0 1 1 527.04 441.088l-14.912 2.432zM512 128C304.768 128 135.808 292.224 128.256 496.64L128 510.848l0.256 14.592a384.256 384.256 0 0 0 242.304 343.936l12.928 4.8 0.384-143.488L212.608 563.2a68.8 68.8 0 0 1-20.224-41.28l-0.512-7.872c0-15.68 5.376-30.784 15.04-42.88l5.12-5.888 254.72-254.528a64 64 0 0 1 84.48-5.312l6.016 5.312 254.592 254.592a68.864 68.864 0 0 1 4.8 92.032l-5.312 5.76L640 730.88l0.128 143.232a384.64 384.64 0 0 0 255.552-346.624L896 512a384 384 0 0 0-384-384z" fill="#ffffff" p-id="11212"></path></svg>